ffmpeg started on 2025-06-19 at 12:05:37
Report written to "D:\Convert\FFMetrics\reports\psnr_report-6.txt"
Log level: 32
Command line:
ffmpeg -hide_banner -nostdin -i "G:\\\xc0\xed\xe8\xec\xe5\\[\xd2\xee\xef-4]\\Fate\\\xc0\xef\xee\xea\xf0\xe8\xf4\\Fate_Apocrypha_[20]_[AniLibria_TV]_[HDTVRip_720p]_HEVC.mkv" -i "G:\\\xc0\xed\xe8\xec\xe5\\[\xd2\xee\xef-4]\\Fate\\\xc0\xef\xee\xea\xf0\xe8\xf4\\Fate_Apocrypha_[20]_[AniLibria_TV]_[HDTVRip_720p].mkv" -lavfi "[0:v]settb=AVTB,setpts=PTS-STARTPTS,format=pix_fmts=yuv420p10,fps=24000/1001,scale=1280:720:flags=bicubic[main];[1:v]settb=AVTB,setpts=PTS-STARTPTS,format=pix_fmts=yuv420p,fps=24000/1001,scale=1280:720:flags=bicubic[ref];[main][ref]psnr=eof_action=endall:stats_file='D\\:/Convert/FFMetrics/logs/psnr_logfile-6.txt'" -f null -
Input #0, matroska,webm, from 'G:\Аниме\[Топ-4]\Fate\Апокриф\Fate_Apocrypha_[20]_[AniLibria_TV]_[HDTVRip_720p]_HEVC.mkv':
  Metadata:
    ENCODER         : Lavf61.7.100
  Duration: 00:24:00.17, start: -0.021000, bitrate: 661 kb/s
  Stream #0:0(jpn): Video: hevc (Main 10), yuv420p10le(tv, bt709, progressive), 1280x720 [SAR 1:1 DAR 16:9], 23.81 fps, 23.81 tbr, 1k tbn (default)
      Metadata:
        ENCODER         : Lavc61.19.100 libx265
        BPS             : 463372
        DURATION        : 00:24:00.054000000
        NUMBER_OF_FRAMES: 34525
        NUMBER_OF_BYTES : 83410205
        _STATISTICS_WRITING_APP: mkvpropedit v66.0.0 ('Josie') 64-bit
        _STATISTICS_WRITING_DATE_UTC: 2025-06-16 17:47:23
        _STATISTICS_TAGS: BPS DURATION NUMBER_OF_FRAMES NUMBER_OF_BYTES
  Stream #0:1(rus): Audio: aac (LC), 48000 Hz, stereo, fltp (default)
      Metadata:
        title           : Ados Amikiri Anzen Hekomi Silv
        ENCODER         : Lavc61.19.100 aac
        BPS             : 193607
        DURATION        : 00:24:00.149000000
        NUMBER_OF_FRAMES: 67508
        NUMBER_OF_BYTES : 34853009
        _STATISTICS_WRITING_APP: mkvpropedit v66.0.0 ('Josie') 64-bit
        _STATISTICS_WRITING_DATE_UTC: 2025-06-16 17:47:23
        _STATISTICS_TAGS: BPS DURATION NUMBER_OF_FRAMES NUMBER_OF_BYTES
  Stream #0:2(rus): Subtitle: ass (ssa) (default) (forced)
      Metadata:
        title           : Надписи
        BPS             : 507
        DURATION        : 00:00:02.980000000
        NUMBER_OF_FRAMES: 2
        NUMBER_OF_BYTES : 189
        _STATISTICS_WRITING_APP: mkvpropedit v66.0.0 ('Josie') 64-bit
        _STATISTICS_WRITING_DATE_UTC: 2025-06-16 17:47:23
        _STATISTICS_TAGS: BPS DURATION NUMBER_OF_FRAMES NUMBER_OF_BYTES
  Stream #0:3(rus): Subtitle: ass (ssa)
      Metadata:
        title           : Полные
        BPS             : 106
        DURATION        : 00:23:43.420000000
        NUMBER_OF_FRAMES: 250
        NUMBER_OF_BYTES : 18991
        _STATISTICS_WRITING_APP: mkvpropedit v66.0.0 ('Josie') 64-bit
        _STATISTICS_WRITING_DATE_UTC: 2025-06-16 17:47:23
        _STATISTICS_TAGS: BPS DURATION NUMBER_OF_FRAMES NUMBER_OF_BYTES
Input #1, matroska,webm, from 'G:\Аниме\[Топ-4]\Fate\Апокриф\Fate_Apocrypha_[20]_[AniLibria_TV]_[HDTVRip_720p].mkv':
  Metadata:
    encoder         : libebml v1.3.0 + libmatroska v1.4.1
    creation_time   : 2017-11-27T18:56:10.000000Z
  Duration: 00:24:00.15, start: 0.000000, bitrate: 2010 kb/s
  Stream #1:0: Video: h264 (Main), yuv420p(tv, bt709, progressive), 1280x720, SAR 1:1 DAR 16:9, 23.81 fps, 23.81 tbr, 1k tbn (default)
      Metadata:
        BPS             : 1605493
        BPS-eng         : 1605493
        DURATION        : 00:24:00.046000000
        DURATION-eng    : 00:24:00.046000000
        NUMBER_OF_FRAMES: 34525
        NUMBER_OF_FRAMES-eng: 34525
        NUMBER_OF_BYTES : 288998014
        NUMBER_OF_BYTES-eng: 288998014
        _STATISTICS_WRITING_APP: mkvmerge v7.3.0 ('Nouages') 64bit built on Oct 22 2014 18:53:34
        _STATISTICS_WRITING_APP-eng: mkvmerge v7.3.0 ('Nouages') 64bit built on Oct 22 2014 18:53:34
        _STATISTICS_WRITING_DATE_UTC: 2017-11-27 18:56:10
        _STATISTICS_WRITING_DATE_UTC-eng: 2017-11-27 18:56:10
        _STATISTICS_TAGS: BPS DURATION NUMBER_OF_FRAMES NUMBER_OF_BYTES
        _STATISTICS_TAGS-eng: BPS DURATION NUMBER_OF_FRAMES NUMBER_OF_BYTES
  Stream #1:1(rus): Audio: aac (LC), 48000 Hz, stereo, fltp (default)
      Metadata:
        title           : Ados Amikiri Anzen Hekomi Silv
        BPS             : 192092
        BPS-eng         : 192092
        DURATION        : 00:24:00.149000000
        DURATION-eng    : 00:24:00.149000000
        NUMBER_OF_FRAMES: 67507
        NUMBER_OF_FRAMES-eng: 67507
        NUMBER_OF_BYTES : 34580143
        NUMBER_OF_BYTES-eng: 34580143
        _STATISTICS_WRITING_APP: mkvmerge v7.3.0 ('Nouages') 64bit built on Oct 22 2014 18:53:34
        _STATISTICS_WRITING_APP-eng: mkvmerge v7.3.0 ('Nouages') 64bit built on Oct 22 2014 18:53:34
        _STATISTICS_WRITING_DATE_UTC: 2017-11-27 18:56:10
        _STATISTICS_WRITING_DATE_UTC-eng: 2017-11-27 18:56:10
        _STATISTICS_TAGS: BPS DURATION NUMBER_OF_FRAMES NUMBER_OF_BYTES
        _STATISTICS_TAGS-eng: BPS DURATION NUMBER_OF_FRAMES NUMBER_OF_BYTES
  Stream #1:2(jpn): Audio: aac (LC), 48000 Hz, stereo, fltp
      Metadata:
        title           : Оригинал
        BPS             : 207877
        BPS-eng         : 207877
        DURATION        : 00:24:00.106000000
        DURATION-eng    : 00:24:00.106000000
        NUMBER_OF_FRAMES: 67505
        NUMBER_OF_FRAMES-eng: 67505
        NUMBER_OF_BYTES : 37420742
        NUMBER_OF_BYTES-eng: 37420742
        _STATISTICS_WRITING_APP: mkvmerge v7.3.0 ('Nouages') 64bit built on Oct 22 2014 18:53:34
        _STATISTICS_WRITING_APP-eng: mkvmerge v7.3.0 ('Nouages') 64bit built on Oct 22 2014 18:53:34
        _STATISTICS_WRITING_DATE_UTC: 2017-11-27 18:56:10
        _STATISTICS_WRITING_DATE_UTC-eng: 2017-11-27 18:56:10
        _STATISTICS_TAGS: BPS DURATION NUMBER_OF_FRAMES NUMBER_OF_BYTES
        _STATISTICS_TAGS-eng: BPS DURATION NUMBER_OF_FRAMES NUMBER_OF_BYTES
  Stream #1:3(rus): Subtitle: ass (ssa) (default) (forced)
      Metadata:
        title           : Надписи
        BPS             : 507
        BPS-eng         : 507
        DURATION        : 00:00:02.980000000
        DURATION-eng    : 00:00:02.980000000
        NUMBER_OF_FRAMES: 2
        NUMBER_OF_FRAMES-eng: 2
        NUMBER_OF_BYTES : 189
        NUMBER_OF_BYTES-eng: 189
        _STATISTICS_WRITING_APP: mkvmerge v7.3.0 ('Nouages') 64bit built on Oct 22 2014 18:53:34
        _STATISTICS_WRITING_APP-eng: mkvmerge v7.3.0 ('Nouages') 64bit built on Oct 22 2014 18:53:34
        _STATISTICS_WRITING_DATE_UTC: 2017-11-27 18:56:10
        _STATISTICS_WRITING_DATE_UTC-eng: 2017-11-27 18:56:10
        _STATISTICS_TAGS: BPS DURATION NUMBER_OF_FRAMES NUMBER_OF_BYTES
        _STATISTICS_TAGS-eng: BPS DURATION NUMBER_OF_FRAMES NUMBER_OF_BYTES
  Stream #1:4(rus): Subtitle: ass (ssa)
      Metadata:
        title           : Полные
        BPS             : 106
        BPS-eng         : 106
        DURATION        : 00:23:43.420000000
        DURATION-eng    : 00:23:43.420000000
        NUMBER_OF_FRAMES: 250
        NUMBER_OF_FRAMES-eng: 250
        NUMBER_OF_BYTES : 18991
        NUMBER_OF_BYTES-eng: 18991
        _STATISTICS_WRITING_APP: mkvmerge v7.3.0 ('Nouages') 64bit built on Oct 22 2014 18:53:34
        _STATISTICS_WRITING_APP-eng: mkvmerge v7.3.0 ('Nouages') 64bit built on Oct 22 2014 18:53:34
        _STATISTICS_WRITING_DATE_UTC: 2017-11-27 18:56:10
        _STATISTICS_WRITING_DATE_UTC-eng: 2017-11-27 18:56:10
        _STATISTICS_TAGS: BPS DURATION NUMBER_OF_FRAMES NUMBER_OF_BYTES
        _STATISTICS_TAGS-eng: BPS DURATION NUMBER_OF_FRAMES NUMBER_OF_BYTES
  Stream #1:5: Attachment: ttf
      Metadata:
        filename        : 9511(1).ttf
        mimetype        : application/x-truetype-font
  Stream #1:6: Attachment: ttf
      Metadata:
        filename        : ALBR.ttf
        mimetype        : application/x-truetype-font
Stream mapping:
  Stream #0:0 (hevc) -> settb:default
  Stream #1:0 (h264) -> settb:default
  psnr:default -> Stream #0:0 (wrapped_avframe)
  Stream #0:1 -> #0:1 (aac (native) -> pcm_s16le (native))
Output #0, null, to 'pipe:':
  Metadata:
    encoder         : Lavf61.7.100
  Stream #0:0: Video: wrapped_avframe, yuv420p10le(tv, bt709, progressive), 1280x720 [SAR 1:1 DAR 16:9], q=2-31, 200 kb/s, 23.98 fps, 23.98 tbn
      Metadata:
        encoder         : Lavc61.19.100 wrapped_avframe
  Stream #0:1(rus): Audio: pcm_s16le, 48000 Hz, stereo, s16, 1536 kb/s (default)
      Metadata:
        title           : Ados Amikiri Anzen Hekomi Silv
        _STATISTICS_TAGS: BPS DURATION NUMBER_OF_FRAMES NUMBER_OF_BYTES
        BPS             : 193607
        DURATION        : 00:24:00.149000000
        NUMBER_OF_FRAMES: 67508
        NUMBER_OF_BYTES : 34853009
        _STATISTICS_WRITING_APP: mkvpropedit v66.0.0 ('Josie') 64-bit
        _STATISTICS_WRITING_DATE_UTC: 2025-06-16 17:47:23
        encoder         : Lavc61.19.100 pcm_s16le
frame=  509 fps=0.0 q=-0.0 size=N/A time=00:00:21.22 bitrate=N/A speed=42.1x    frame= 1128 fps=1094 q=-0.0 size=N/A time=00:00:47.04 bitrate=N/A speed=45.6x    frame= 1693 fps=1098 q=-0.0 size=N/A time=00:01:10.61 bitrate=N/A speed=45.8x    frame= 2047 fps=997 q=-0.0 size=N/A time=00:01:25.37 bitrate=N/A speed=41.6x    frame= 2472 fps=964 q=-0.0 size=N/A time=00:01:43.10 bitrate=N/A speed=40.2x    frame= 2883 fps=933 q=-0.0 size=N/A time=00:02:00.24 bitrate=N/A speed=38.9x    frame= 3300 fps=916 q=-0.0 size=N/A time=00:02:17.63 bitrate=N/A speed=38.2x    frame= 3673 fps=890 q=-0.0 size=N/A time=00:02:33.19 bitrate=N/A speed=37.1x    frame= 4166 fps=898 q=-0.0 size=N/A time=00:02:53.75 bitrate=N/A speed=37.5x    frame= 4650 fps=902 q=-0.0 size=N/A time=00:03:13.94 bitrate=N/A speed=37.6x    frame= 5063 fps=894 q=-0.0 size=N/A time=00:03:31.16 bitrate=N/A speed=37.3x    frame= 5424 fps=877 q=-0.0 size=N/A time=00:03:46.22 bitrate=N/A speed=36.6x    frame= 6031 fps=899 q=-0.0 size=N/A time=00:04:11.54 bitrate=N/A speed=37.5x    frame= 6679 fps=924 q=-0.0 size=N/A time=00:04:38.56 bitrate=N/A speed=38.5x    frame= 7315 fps=945 q=-0.0 size=N/A time=00:05:05.09 bitrate=N/A speed=39.4x    frame= 7928 fps=959 q=-0.0 size=N/A time=00:05:30.66 bitrate=N/A speed=  40x    frame= 8517 fps=971 q=-0.0 size=N/A time=00:05:55.22 bitrate=N/A speed=40.5x    frame= 9194 fps=989 q=-0.0 size=N/A time=00:06:23.46 bitrate=N/A speed=41.2x    frame= 9806 fps=1000 q=-0.0 size=N/A time=00:06:48.99 bitrate=N/A speed=41.7x    frame=10399 fps=1007 q=-0.0 size=N/A time=00:07:13.72 bitrate=N/A speed=  42x    frame=10980 fps=1014 q=-0.0 size=N/A time=00:07:37.95 bitrate=N/A speed=42.3x    frame=11517 fps=1014 q=-0.0 size=N/A time=00:08:00.35 bitrate=N/A speed=42.3x    frame=12118 fps=1021 q=-0.0 size=N/A time=00:08:25.46 bitrate=N/A speed=42.6x    frame=12706 fps=1025 q=-0.0 size=N/A time=00:08:49.94 bitrate=N/A speed=42.8x    frame=13262 fps=1028 q=-0.0 size=N/A time=00:09:13.13 bitrate=N/A speed=42.9x    frame=13851 fps=1033 q=-0.0 size=N/A time=00:09:37.70 bitrate=N/A speed=43.1x    frame=14423 fps=1035 q=-0.0 size=N/A time=00:10:01.55 bitrate=N/A speed=43.2x    frame=14963 fps=1036 q=-0.0 size=N/A time=00:10:24.08 bitrate=N/A speed=43.2x    frame=15420 fps=1030 q=-0.0 size=N/A time=00:10:43.14 bitrate=N/A speed=  43x    frame=15939 fps=1030 q=-0.0 size=N/A time=00:11:04.78 bitrate=N/A speed=42.9x    frame=16520 fps=1033 q=-0.0 size=N/A time=00:11:29.02 bitrate=N/A speed=43.1x    frame=17184 fps=1041 q=-0.0 size=N/A time=00:11:56.71 bitrate=N/A speed=43.4x    frame=17818 fps=1047 q=-0.0 size=N/A time=00:12:23.15 bitrate=N/A speed=43.7x    frame=18394 fps=1048 q=-0.0 size=N/A time=00:12:47.18 bitrate=N/A speed=43.7x    frame=18906 fps=1047 q=-0.0 size=N/A time=00:13:08.53 bitrate=N/A speed=43.7x    frame=19406 fps=1045 q=-0.0 size=N/A time=00:13:29.39 bitrate=N/A speed=43.6x    frame=19979 fps=1047 q=-0.0 size=N/A time=00:13:53.29 bitrate=N/A speed=43.7x    frame=20571 fps=1049 q=-0.0 size=N/A time=00:14:17.98 bitrate=N/A speed=43.7x    frame=21236 fps=1055 q=-0.0 size=N/A time=00:14:45.71 bitrate=N/A speed=  44x    frame=21802 fps=1056 q=-0.0 size=N/A time=00:15:09.32 bitrate=N/A speed=44.1x    frame=22373 fps=1058 q=-0.0 size=N/A time=00:15:33.14 bitrate=N/A speed=44.1x    frame=22865 fps=1056 q=-0.0 size=N/A time=00:15:53.66 bitrate=N/A speed=  44x    frame=23312 fps=1051 q=-0.0 size=N/A time=00:16:12.30 bitrate=N/A speed=43.8x    frame=23796 fps=1048 q=-0.0 size=N/A time=00:16:32.49 bitrate=N/A speed=43.7x    frame=24203 fps=1043 q=-0.0 size=N/A time=00:16:49.46 bitrate=N/A speed=43.5x    frame=24574 fps=1036 q=-0.0 size=N/A time=00:17:04.94 bitrate=N/A speed=43.2x    frame=25051 fps=1033 q=-0.0 size=N/A time=00:17:24.83 bitrate=N/A speed=43.1x    frame=25469 fps=1029 q=-0.0 size=N/A time=00:17:42.26 bitrate=N/A speed=42.9x    frame=25966 fps=1028 q=-0.0 size=N/A time=00:18:02.99 bitrate=N/A speed=42.9x    frame=26446 fps=1025 q=-0.0 size=N/A time=00:18:23.01 bitrate=N/A speed=42.8x    frame=26877 fps=1022 q=-0.0 size=N/A time=00:18:40.99 bitrate=N/A speed=42.6x    frame=27394 fps=1021 q=-0.0 size=N/A time=00:19:02.55 bitrate=N/A speed=42.6x    frame=27880 fps=1020 q=-0.0 size=N/A time=00:19:22.82 bitrate=N/A speed=42.5x    frame=28406 fps=1020 q=-0.0 size=N/A time=00:19:44.76 bitrate=N/A speed=42.5x    frame=28967 fps=1021 q=-0.0 size=N/A time=00:20:08.16 bitrate=N/A speed=42.6x    frame=29490 fps=1021 q=-0.0 size=N/A time=00:20:29.97 bitrate=N/A speed=42.6x    frame=29994 fps=1020 q=-0.0 size=N/A time=00:20:50.99 bitrate=N/A speed=42.5x    frame=30493 fps=1019 q=-0.0 size=N/A time=00:21:11.81 bitrate=N/A speed=42.5x    frame=31086 fps=1022 q=-0.0 size=N/A time=00:21:36.54 bitrate=N/A speed=42.6x    frame=31482 fps=1017 q=-0.0 size=N/A time=00:21:53.06 bitrate=N/A speed=42.4x    frame=31968 fps=1016 q=-0.0 size=N/A time=00:22:13.33 bitrate=N/A speed=42.4x    frame=32426 fps=1014 q=-0.0 size=N/A time=00:22:32.43 bitrate=N/A speed=42.3x    frame=32859 fps=1011 q=-0.0 size=N/A time=00:22:50.49 bitrate=N/A speed=42.2x    frame=33244 fps=1007 q=-0.0 size=N/A time=00:23:06.55 bitrate=N/A speed=  42x    frame=33692 fps=1005 q=-0.0 size=N/A time=00:23:25.23 bitrate=N/A speed=41.9x    frame=34173 fps=1004 q=-0.0 size=N/A time=00:23:45.29 bitrate=N/A speed=41.9x    [Parsed_psnr_10 @ 00000264b91d3500] PSNR y:32.259619 u:44.351693 v:44.634829 average:33.892533 min:3.249854 max:59.054485
[out#0/null @ 00000264ad165c40] video:14836KiB audio:270032KiB subtitle:0KiB other streams:0KiB global headers:0KiB muxing overhead: unknown
frame=34527 fps=1005 q=-0.0 Lsize=N/A time=00:24:00.06 bitrate=N/A speed=41.9x    
